<svg xmlns="http://www.w3.org/2000/svg" xmlns:xlink="http://www.w3.org/1999/xlink" version="1.1" x="0px" y="0px" viewBox="0 0 100 125" enable-background="new 0 0 100 100" xml:space="preserve"><path d="M49.999,5C25.146,5,5,25.146,5,50s20.146,45,44.999,45C74.852,95,95,74.854,95,50S74.852,5,49.999,5z M81.177,76.282  c-7.49,8.872-18.685,14.521-31.178,14.521c-12.492,0-23.686-5.648-31.176-14.521v-6.597c0-7.738,6.248-13.987,13.973-13.987h8.058  c-5.845-3.232-9.809-9.451-9.809-16.596c0-10.46,8.491-18.953,18.954-18.953c10.462,0,18.954,8.493,18.954,18.953  c0,7.145-3.965,13.363-9.807,16.596h8.041v0.003c0.006,0,0.009-0.003,0.014-0.003c7.702,0,13.976,6.249,13.976,13.987V76.282z"/></svg>